<svg xmlns="http://www.w3.org/2000/svg" viewBox="0 0 128 128" role="img" aria-labelledby="title desc">
  <title id="title">Aether Engine Launch Icon</title>
  <desc id="desc">A glowing procedural planet control icon for Aether Engine.</desc>
  <defs>
    <radialGradient id="core" cx="44%" cy="34%" r="72%">
      <stop offset="0%" stop-color="#ffffff"/>
      <stop offset="34%" stop-color="#a5b4fc"/>
      <stop offset="68%" stop-color="#4f46e5"/>
      <stop offset="100%" stop-color="#111827"/>
    </radialGradient>
    <linearGradient id="ring" x1="19" y1="18" x2="109" y2="110">
      <stop offset="0%" stop-color="#67e8f9"/>
      <stop offset="45%" stop-color="#818cf8"/>
      <stop offset="100%" stop-color="#22c55e"/>
    </linearGradient>
    <filter id="glow" x="-30%" y="-30%" width="160%" height="160%">
      <feGaussianBlur stdDeviation="4" result="blur"/>
      <feColorMatrix in="blur" type="matrix" values="0 0 0 0 0.38 0 0 0 0 0.47 0 0 0 0 1 0 0 0 0.8 0"/>
      <feMerge>
        <feMergeNode/>
        <feMergeNode in="SourceGraphic"/>
      </feMerge>
    </filter>
  </defs>
  <rect width="128" height="128" rx="28" fill="#030712"/>
  <path d="M22 92C31 110 98 110 106 36" fill="none" stroke="url(#ring)" stroke-width="8" stroke-linecap="round" opacity=".88"/>
  <path d="M107 36l-2 22-18-13z" fill="#67e8f9"/>
  <circle cx="64" cy="64" r="36" fill="url(#core)" filter="url(#glow)"/>
  <path d="M32 65h64M64 28c11 10 16 22 16 36s-5 26-16 36M64 28C53 38 48 50 48 64s5 26 16 36" fill="none" stroke="#eef2ff" stroke-width="5" stroke-linecap="round" opacity=".88"/>
  <path d="M38 82c12 5 40 5 52-1M38 46c12-5 40-5 52 1" fill="none" stroke="#c7d2fe" stroke-width="4" stroke-linecap="round" opacity=".8"/>
  <circle cx="92" cy="32" r="5" fill="#22c55e"/>
</svg>
